<svg xmlns="http://www.w3.org/2000/svg" viewBox="0 0 88 88"><title>Artboard-29</title><g id="Telephone"><path d="M55.707,58.293a.9994.9994,0,0,0-1.414,0l-4,4a.9994.9994,0,0,0,0,1.414L51.5859,65l-3.4648,3.4648a3.0023,3.0023,0,0,1-4.2422,0L19.5352,44.1211a3.0023,3.0023,0,0,1,0-4.2422L23,36.4141l1.293,1.2929a.9995.9995,0,0,0,1.414,0l4-4a.9994.9994,0,0,0,0-1.414l-17-17a.9994.9994,0,0,0-1.414,0l-4,4a.9994.9994,0,0,0,0,1.414L8.5859,22l-4.95,4.95A8.9362,8.9362,0,0,0,1,33.3135v6.5439a10.9285,10.9285,0,0,0,3.2217,7.7783L40.3643,83.7783A10.9285,10.9285,0,0,0,48.1426,87h6.5439A8.9362,8.9362,0,0,0,61.05,84.3643l4.95-4.95,1.293,1.2929a.9995.9995,0,0,0,1.414,0l4-4a.9994.9994,0,0,0,0-1.414ZM12,17.4141,27.5859,33,25,35.5859,9.4141,20ZM59.6357,82.95A6.9529,6.9529,0,0,1,54.6865,85H48.1426a8.9444,8.9444,0,0,1-6.3643-2.6357L5.6357,46.2217A8.9444,8.9444,0,0,1,3,39.8574V33.3135a6.9529,6.9529,0,0,1,2.05-4.9492l4.95-4.95L21.5859,35l-3.4648,3.4648a5.0054,5.0054,0,0,0,0,7.07L42.4648,69.8789a5.0054,5.0054,0,0,0,7.07,0L53,66.4141,64.5859,78ZM68,78.5859,52.4141,63,55,60.4141,70.5859,76Z" style="fill:#1d1b1e"/><path d="M61,1A25.9948,25.9948,0,0,0,38.8486,40.6064l-2.8125,10.126a1.0008,1.0008,0,0,0,1.2315,1.2315l10.126-2.8125A25.9985,25.9985,0,1,0,61,1Zm0,50a23.9113,23.9113,0,0,1-12.91-3.7734,1.0037,1.0037,0,0,0-.8066-.1211l-8.8457,2.457,2.457-8.8457a1.0027,1.0027,0,0,0-.1211-.8066A23.9966,23.9966,0,1,1,61,51Z" style="fill:#1d1b1e"/><path d="M73,15H49a1,1,0,0,0-1,1V38a1,1,0,0,0,1,1H73a1,1,0,0,0,1-1V16A1,1,0,0,0,73,15Zm-1,5H65V17h7Zm-9,3.1318-1.4453-.9638a1,1,0,0,0-1.1094,0L59,23.1318V17h4ZM50,17h7v3H50Zm0,20V22h7v3a1,1,0,0,0,1.5547.832L61,24.2021l2.4453,1.63A1,1,0,0,0,65,25V22h7V37Z" style="fill:#1d1b1e"/><path d="M58,31H52a1,1,0,0,0,0,2h6a1,1,0,0,0,0-2Z" style="fill:#1d1b1e"/><path d="M55,34H52a1,1,0,0,0,0,2h3a1,1,0,0,0,0-2Z" style="fill:#1d1b1e"/></g></svg>